<svg width="129" height="32" viewBox="0 0 129 32" fill="none" xmlns="http://www.w3.org/2000/svg">
<g id="Company Logo">
<g id="Lookscout">
<path d="M33.5568 9.2529H36.3961V20.0711H41.6585V22.5128H33.5568V9.2529Z" fill="#2E343F"/>
<path d="M42.9367 20.2605C42.502 19.4595 42.2831 18.5592 42.3016 17.6481C42.2831 16.7369 42.502 15.8366 42.9367 15.0356C43.35 14.2871 43.9759 13.678 44.7353 13.285C45.5768 12.8793 46.4989 12.6686 47.4331 12.6686C48.3673 12.6686 49.2895 12.8793 50.131 13.285C50.8892 13.6795 51.5147 14.2883 51.9296 15.0356C52.3622 15.8373 52.5801 16.7373 52.562 17.6481C52.5823 18.5625 52.3643 19.4665 51.9296 20.2712C51.5119 21.0137 50.8869 21.6183 50.131 22.0111C49.2895 22.4168 48.3673 22.6275 47.4331 22.6275C46.4989 22.6275 45.5768 22.4168 44.7353 22.0111C43.9759 21.6182 43.35 21.009 42.9367 20.2605ZM49.8562 17.6481C49.8862 16.9149 49.6502 16.1956 49.1917 15.6227C48.9759 15.37 48.7054 15.1697 48.4007 15.037C48.096 14.9044 47.7652 14.8427 47.4331 14.8568C47.1014 14.8434 46.7709 14.9065 46.4674 15.0412C46.1639 15.1758 45.8954 15.3784 45.6826 15.6333C45.2268 16.2071 44.9945 16.9267 45.0288 17.6587C44.9945 18.3907 45.2268 19.1103 45.6826 19.6841C45.8954 19.9391 46.1639 20.1417 46.4674 20.2763C46.7709 20.4109 47.1014 20.474 47.4331 20.4607C47.7669 20.4722 48.0988 20.4072 48.4036 20.2708C48.7084 20.1343 48.978 19.93 49.1917 19.6735C49.6502 19.1006 49.8862 18.3812 49.8562 17.6481Z" fill="#2E343F"/>
<path d="M54.2939 20.2606C53.8592 19.4595 53.6403 18.5592 53.6588 17.6481C53.6403 16.7369 53.8592 15.8366 54.2939 15.0356C54.7072 14.2871 55.3331 13.678 56.0925 13.285C56.9335 12.8794 57.8552 12.6687 58.789 12.6687C59.7228 12.6687 60.6445 12.8794 61.4855 13.285C62.2449 13.678 62.8708 14.2871 63.2841 15.0356C63.7188 15.8366 63.9377 16.7369 63.9192 17.6481C63.9399 18.5629 63.721 19.4672 63.2841 20.2712C62.868 21.0148 62.2426 21.6198 61.4855 22.0111C60.6445 22.4168 59.7228 22.6274 58.789 22.6274C57.8552 22.6274 56.9335 22.4168 56.0925 22.0111C55.3331 21.6182 54.7072 21.009 54.2939 20.2606ZM61.2134 17.6481C61.2464 16.9162 61.0143 16.1971 60.5596 15.6227C60.336 15.378 60.064 15.1826 59.7607 15.0489C59.4575 14.9152 59.1297 14.8462 58.7984 14.8462C58.467 14.8462 58.1392 14.9152 57.836 15.0489C57.5327 15.1826 57.2607 15.378 57.0371 15.6227C56.5872 16.1989 56.3599 16.9179 56.3967 17.6481C56.3629 18.3796 56.5941 19.0987 57.0478 19.6735C57.2713 19.9181 57.5434 20.1135 57.8466 20.2472C58.1499 20.3809 58.4776 20.45 58.809 20.45C59.1404 20.45 59.4682 20.3809 59.7714 20.2472C60.0747 20.1135 60.3467 19.9181 60.5703 19.6735C61.0211 19.0976 61.2494 18.3786 61.2134 17.6481Z" fill="#2E343F"/>
<path d="M68.0634 9.2529V16.9276L71.8874 12.7834H74.8789L71.4098 16.5887L75.0763 22.5128H71.9835L69.5231 18.5767L68.0634 20.1458V22.5128H65.3949V9.2529H68.0634Z" fill="#2E343F"/>
<path d="M78.3613 20.3166C78.7921 20.6025 79.3016 20.7462 79.8183 20.7275C80.2784 20.7513 80.737 20.6595 81.1526 20.4607C81.3057 20.3914 81.435 20.2785 81.5242 20.1361C81.6134 19.9937 81.6587 19.8281 81.6542 19.6601C81.6624 19.5544 81.6462 19.4481 81.6069 19.3496C81.5676 19.251 81.5062 19.1628 81.4274 19.0917C81.2376 18.9525 81.017 18.861 80.7843 18.8249C80.5175 18.7689 80.0531 18.7021 79.4207 18.6274C78.6985 18.5407 77.9845 18.3952 77.2859 18.1925C76.7647 18.0426 76.2937 17.755 75.9223 17.3599C75.5656 16.9378 75.3824 16.3961 75.4099 15.8442C75.403 15.2427 75.5901 14.655 75.9436 14.1683C76.3161 13.6624 76.8239 13.272 77.4086 13.0422C78.1008 12.7662 78.8411 12.631 79.5861 12.6446C80.9115 12.6571 81.9789 12.9408 82.7884 13.4959C83.1771 13.7471 83.4996 14.0883 83.7286 14.4905C83.9576 14.8928 84.0863 15.3443 84.1039 15.8068H81.5689C81.5485 15.6226 81.4859 15.4457 81.3859 15.2897C81.2859 15.1337 81.1513 15.0029 80.9925 14.9075C80.5929 14.6597 80.128 14.5379 79.6582 14.5579C79.2334 14.5382 78.8114 14.6361 78.4387 14.8408C78.2995 14.9128 78.1828 15.0215 78.1009 15.155C78.0191 15.2886 77.9753 15.442 77.9743 15.5987C77.9683 15.6975 77.9876 15.7963 78.0306 15.8855C78.0736 15.9748 78.1388 16.0515 78.2199 16.1083C78.4146 16.2349 78.6337 16.3194 78.863 16.3565C79.1298 16.4045 79.5701 16.4633 80.1972 16.5246C81.5101 16.6776 82.5171 16.9587 83.218 17.3679C83.9172 17.7788 84.2667 18.4807 84.2667 19.4787C84.2759 20.0811 84.0792 20.6685 83.709 21.1438C83.3026 21.6484 82.7654 22.0315 82.1559 22.2513C81.4202 22.5236 80.64 22.6557 79.8557 22.6409C78.5054 22.6409 77.4077 22.3411 76.5627 21.7416C76.161 21.4687 75.8303 21.1038 75.5982 20.6772C75.3661 20.2506 75.2393 19.7747 75.2284 19.2892H77.7449C77.763 19.496 77.8279 19.6959 77.9347 19.8739C78.0415 20.0519 78.1874 20.2033 78.3613 20.3166Z" fill="#2E343F"/>
<path d="M90.4177 22.6275C89.4966 22.6484 88.5851 22.4363 87.7678 22.0111C87.0242 21.6133 86.4151 21.0042 86.0173 20.2606C85.5969 19.455 85.3859 18.5566 85.4035 17.6481C85.3833 16.7367 85.5945 15.8352 86.0173 15.0276C86.4192 14.2854 87.0321 13.6791 87.7785 13.285C88.6022 12.8588 89.5199 12.6468 90.447 12.6686C91.7475 12.6686 92.8069 13.0004 93.6252 13.664C94.4623 14.3558 95.0043 15.3406 95.1409 16.4179H92.3683C92.2763 15.9708 92.0366 15.5676 91.6879 15.2731C91.3299 14.9821 90.8787 14.8304 90.4177 14.8461C90.0986 14.8354 89.7814 14.9001 89.4921 15.035C89.2027 15.17 88.9493 15.3713 88.7525 15.6227C88.3154 16.2048 88.0946 16.9209 88.1281 17.6481C88.0946 18.3753 88.3154 19.0914 88.7525 19.6735C88.9482 19.9268 89.2011 20.1302 89.4906 20.267C89.78 20.4038 90.0977 20.4702 90.4177 20.4607C90.8883 20.4772 91.349 20.3227 91.7146 20.0257C92.0709 19.7187 92.3088 19.2968 92.387 18.8329H95.1329C95.0082 19.922 94.4693 20.9215 93.6279 21.6242C92.8006 22.2931 91.7306 22.6275 90.4177 22.6275Z" fill="#2E343F"/>
<path d="M96.6913 20.2606C96.2567 19.4595 96.0378 18.5592 96.0562 17.6481C96.0378 16.7369 96.2567 15.8366 96.6913 15.0356C97.1047 14.2871 97.7306 13.678 98.4899 13.285C99.331 12.8794 100.253 12.6687 101.186 12.6687C102.12 12.6687 103.042 12.8794 103.883 13.285C104.642 13.678 105.268 14.2871 105.682 15.0356C106.116 15.8366 106.335 16.7369 106.317 17.6481C106.337 18.5629 106.118 19.4672 105.682 20.2712C105.269 21.0129 104.648 21.6177 103.896 22.0111C103.055 22.4168 102.134 22.6274 101.2 22.6274C100.266 22.6274 99.3443 22.4168 98.5033 22.0111C97.739 21.6203 97.1082 21.0109 96.6913 20.2606ZM103.611 17.6481C103.644 16.9162 103.412 16.1971 102.957 15.6227C102.733 15.378 102.461 15.1826 102.158 15.0489C101.855 14.9152 101.527 14.8462 101.196 14.8462C100.864 14.8462 100.537 14.9152 100.233 15.0489C99.9302 15.1826 99.6581 15.378 99.4346 15.6227C98.9808 16.1974 98.7497 16.9166 98.7835 17.6481C98.7497 18.3796 98.9808 19.0987 99.4346 19.6735C99.6581 19.9181 99.9302 20.1135 100.233 20.2472C100.537 20.3809 100.864 20.45 101.196 20.45C101.527 20.45 101.855 20.3809 102.158 20.2472C102.461 20.1135 102.733 19.9181 102.957 19.6735C103.413 19.0995 103.646 18.3802 103.613 17.6481H103.611Z" fill="#2E343F"/>
<path d="M116.956 22.5128H114.592L114.344 21.3386C114.002 21.7627 113.565 22.1004 113.069 22.3244C112.572 22.5483 112.03 22.6521 111.486 22.6275C110.975 22.647 110.465 22.5641 109.986 22.3835C109.508 22.2029 109.07 21.9284 108.7 21.5761C107.988 20.877 107.632 19.7064 107.632 18.0644V12.7834H110.301V17.7415C110.301 18.6274 110.456 19.2919 110.765 19.7402C110.926 19.9653 111.142 20.1453 111.393 20.2631C111.643 20.3808 111.919 20.4323 112.195 20.4127C112.496 20.4262 112.794 20.365 113.065 20.2346C113.335 20.1042 113.569 19.9086 113.746 19.6655C114.114 19.1665 114.296 18.4673 114.296 17.5733V12.7834H116.964L116.956 22.5128Z" fill="#2E343F"/>
<path d="M117.903 15.0356V12.7834H119.505V10.0535H122.173V12.7834H124.388V15.0356H122.173V19.3052C122.149 19.5701 122.226 19.8342 122.389 20.0444C122.49 20.1291 122.606 20.1928 122.732 20.2318C122.857 20.2707 122.99 20.2841 123.12 20.2712H124.5V22.5235H122.309C120.452 22.5235 119.524 21.5957 119.526 19.7402V15.0356H117.903Z" fill="#2E343F"/>
<path d="M18.3564 7.1998L4.5 15.1998V10.3998L14.2026 4.7998L18.3564 7.1998Z" fill="#2E343F"/>
<path d="M23.9051 10.3998V13.169L6.9 22.9844L4.5 21.5998V18.9947L21.6385 9.09724L23.9051 10.3998Z" fill="#2E343F"/>
<path d="M10.1821 24.8819L23.9051 16.9639V21.5998L14.2026 27.1998L10.1821 24.8819Z" fill="#2E343F"/>
</g>
</g>
</svg>
