<svg width="33" height="32" viewBox="0 0 33 32" fill="none" xmlns="http://www.w3.org/2000/svg">
<g id="Icon">
<path id="Icon_2" d="M16.4999 30.6666C24.6001 30.6666 31.1666 24.1001 31.1666 15.9999C31.1666 7.89974 24.6001 1.33325 16.4999 1.33325M16.4999 30.6666C8.39974 30.6666 1.83325 24.1001 1.83325 15.9999C1.83325 7.89974 8.39974 1.33325 16.4999 1.33325M16.4999 30.6666C19.4454 30.6666 21.8333 24.1001 21.8333 15.9999C21.8333 7.89974 19.4454 1.33325 16.4999 1.33325M16.4999 30.6666C13.5544 30.6666 11.1666 24.1001 11.1666 15.9999C11.1666 7.89974 13.5544 1.33325 16.4999 1.33325M3.16659 10.6666H29.8333M3.16659 19.9999H29.8333" stroke="#437EF7" stroke-width="2" stroke-linecap="round"/>
</g>
</svg>
