<svg width="33" height="32" viewBox="0 0 33 32" fill="none" xmlns="http://www.w3.org/2000/svg">
<g id="Icon">
<path id="Icon_2" d="M20.3978 9.45097L17.6479 4.66404C17.1373 3.77523 15.8565 3.77098 15.3401 4.65638L12.4383 9.63087C12.0539 10.2898 11.4058 10.7525 10.6578 10.9021L6.69288 11.6951C5.66597 11.9005 5.26582 13.1553 5.98425 13.9172L8.85202 16.9588C9.46525 17.6092 9.71181 18.5236 9.50869 19.3941L8.21064 24.9572C7.94381 26.1007 9.17861 27.0058 10.1888 26.4072L15.1411 23.4725C15.9794 22.9758 17.0218 22.9758 17.8601 23.4725L22.8124 26.4072C23.8226 27.0058 25.0574 26.1007 24.7906 24.9572L23.4811 19.3454C23.2843 18.5018 23.5095 17.6152 24.085 16.9678L26.9563 13.7376C27.6404 12.9679 27.231 11.7463 26.2212 11.5443L22.1871 10.7375C21.4331 10.5867 20.7809 10.1178 20.3978 9.45097Z" stroke="#437EF7" stroke-width="2" stroke-miterlimit="10"/>
</g>
</svg>
